<svg xmlns="http://www.w3.org/2000/svg">
<symbol id="phone">
  <path d="M13.7455 13.0923C13.4909 13.5935 12.9818 13.8441 12.4727 14.0947C11.8364 14.4706 11.3273 14.5959 10.6909 14.5959C9.8 14.5959 8.90909 14.22 8.14545 13.9694C7.50909 13.7188 7 13.4682 6.36364 13.2176C4.58182 12.09 2.54545 10.0853 1.52727 8.45643C1.14545 7.82996 0.890909 7.32879 0.636364 6.70231C0.381818 5.82525 0 5.07349 0 4.07113C0 3.44466 0.127273 2.81819 0.509091 2.19171C0.763636 1.69054 1.01818 1.18936 1.52727 0.938771C1.90909 0.938771 2.54545 0.813477 2.92727 0.813477C3.05455 0.813477 3.05455 0.813477 3.18182 0.813477C3.43636 0.938771 3.56364 1.31465 3.69091 1.56524C3.94545 2.19171 4.32727 2.69289 4.58182 3.31936C4.83636 3.56995 5.09091 3.82054 5.09091 4.07113C5.09091 4.6976 3.30909 5.57466 3.30909 6.07584C3.30909 6.32643 3.56364 6.70231 3.69091 6.9529C4.70909 8.70702 5.98182 9.95997 7.76364 10.9623C8.01818 11.0876 8.4 11.3382 8.65455 11.3382C9.16364 11.3382 10.0545 9.58408 10.6909 9.58408C10.9455 9.58408 11.2 9.83467 11.4545 10.0853C11.9636 10.4611 12.6 10.7117 13.1091 11.0876C13.3636 11.2129 13.7455 11.3382 13.8727 11.5888C13.8727 11.7141 13.8727 11.7141 13.8727 11.8394C14 12.09 13.8727 12.7164 13.7455 13.0923Z" />
</symbol>

<symbol id="company-logo">
  <path d="M20 26C23.3 26 26 23.3 26 20C26 16.7 23.3 14 20 14C16.7 14 14 16.7 14 20C14 23.3 16.7 26 20 26ZM20 0C18 0 15.9 0.3 14 0.9V12C18.4 8.7 24.7 9.6 28 14C31.3 18.4 30.4 24.7 26 28C21.6 31.3 15.3 30.4 12 26C10.7 24.3 9.99999 22.2 9.99999 20V2.7C0.399989 8.2 -2.80001 20.4 2.69999 30C8.19999 39.6 20.4 42.8 30 37.3C39.6 31.8 42.8 19.6 37.3 10C33.8 3.8 27.2 0 20 0Z" fill="#E01F3D"/>
</symbol>

<symbol id="sound">
  <path d="M12.5923 0.788452C6.0838 0.788452 0.788452 6.52513 0.788452 13.6081C0.813499 15.2504 1.26379 16.8582 2.0954 18.2746C2.48837 18.9449 2.82485 19.6468 3.10135 20.373C3.28473 20.9068 3.10872 21.498 2.6633 21.8446C1.88835 22.4641 1.43928 23.404 1.44422 24.3962C1.44111 25.4864 1.9801 26.5069 2.88233 27.1189C3.20669 27.3393 3.40398 27.7033 3.41153 28.0954V33.577C3.41153 37.1929 6.05888 40.1347 9.31347 40.1347C12.5681 40.1347 15.2154 37.1929 15.2154 33.577C15.2054 30.8762 16.3799 28.3068 18.4287 26.5471C22.2694 23.3425 24.4615 18.5777 24.3962 13.576C24.3962 6.52513 19.1008 0.788452 12.5923 0.788452ZM17.5762 25.551C15.2357 27.5594 13.8934 30.4929 13.9039 33.577C13.9039 36.4696 11.8441 38.8231 9.31347 38.8231C6.78285 38.8231 4.72307 36.4696 4.72307 33.577V28.0954C4.71245 27.2832 4.31391 26.5251 3.65089 26.0559C3.09063 25.69 2.75372 25.0654 2.75576 24.3962C2.75126 23.793 3.02755 23.222 3.50334 22.8512C4.37644 22.1517 4.70981 20.9754 4.33355 19.9219C4.03153 19.1275 3.66367 18.3598 3.23382 17.6267C2.51115 16.3975 2.12043 15.0017 2.09999 13.576C2.09999 7.24845 6.80711 2.09999 12.5923 2.09999C18.3775 2.09999 23.0846 7.24845 23.0846 13.576C23.1447 18.1933 21.1213 22.592 17.5762 25.551Z" fill="black"/>
  <path d="M12.5923 4.06729C8.9377 4.06729 5.82148 6.6589 4.61158 10.2814C4.60306 10.303 4.59715 10.324 4.5906 10.3469C4.24485 11.3989 4.06778 12.4989 4.06598 13.6061C4.06598 14.3931 4.06598 16.7997 5.56966 18.3034C5.82697 18.5519 6.23598 18.5484 6.48893 18.2954C6.74189 18.0425 6.74544 17.6335 6.49692 17.3762C5.95817 16.7773 5.61221 16.03 5.50408 15.2318C5.60966 15.2252 5.71393 15.2167 5.82344 15.2167C8.83343 15.2154 11.2808 17.9696 11.2808 21.3534C11.2808 21.6675 11.2657 21.9626 11.2414 22.2538C10.9149 22.6024 10.5676 22.9309 10.2014 23.2374C8.29139 24.8016 7.2328 27.1762 7.34614 29.6423C7.34614 30.0045 7.63974 30.2981 8.00191 30.2981C8.36409 30.2981 8.65768 30.0045 8.65768 29.6423C8.54487 27.563 9.43359 25.5552 11.0486 24.2408C13.3623 22.465 14.6711 19.6774 14.5596 16.763C14.5596 12.6579 11.4709 9.31345 7.67403 9.31345C7.23785 9.3146 6.80296 9.36075 6.37626 9.45117C7.51611 7.0315 9.91876 5.45745 12.5923 5.37883C16.5696 5.37883 19.8058 9.06885 19.8058 13.6048C19.8573 17.1782 18.3076 20.5872 15.5813 22.8977C15.4908 22.9758 15.3905 23.0597 15.2816 23.1509C13.9766 24.2355 11.2624 26.4953 10.6289 32.1933C10.5906 32.5523 10.8498 32.8748 11.2086 32.9146C11.2325 32.9181 11.2566 32.9203 11.2808 32.9212C11.6148 32.9209 11.8952 32.6695 11.9319 32.3376C12.5071 27.1635 14.8567 25.2087 16.1197 24.1588C16.2358 24.0617 16.3427 23.9725 16.4384 23.8899C19.4567 21.3331 21.1731 17.5601 21.1173 13.6048C21.1173 8.34554 17.2929 4.06729 12.5923 4.06729ZM7.67403 10.625C10.7476 10.625 13.2481 13.3792 13.2481 16.763C13.2778 18.0038 13.0314 19.2358 12.5267 20.3697C12.0867 16.7237 9.25247 13.9038 5.82476 13.9038C5.67327 13.9038 5.52769 13.915 5.38145 13.9255C5.38145 13.7996 5.38145 13.6901 5.38145 13.6048C5.38169 12.7278 5.50712 11.8554 5.75393 11.0139C6.36201 10.7587 7.0146 10.6266 7.67403 10.625Z" fill="black"/>
  <path d="M33.577 15.8712C33.6273 13.8043 34.5038 11.8439 36.0105 10.4283C36.1936 10.2657 36.2708 10.0148 36.2109 9.77745C36.151 9.54012 35.9639 9.35591 35.7257 9.29971C35.4874 9.2435 35.2377 9.32466 35.078 9.51019C33.3267 11.1684 32.3135 13.4598 32.2654 15.8712C32.3135 18.2825 33.3267 20.5739 35.078 22.2321C35.2377 22.4177 35.4874 22.4988 35.7257 22.4426C35.9639 22.3864 36.151 22.2022 36.2109 21.9649C36.2708 21.7275 36.1936 21.4766 36.0105 21.3141C34.5038 19.8984 33.6273 17.938 33.577 15.8712Z" fill="black"/>
  <path d="M37.9477 12.1025C37.8178 11.9868 37.6472 11.9275 37.4736 11.9375C37.2999 11.9476 37.1374 12.0263 37.0217 12.1562C35.0519 14.2412 35.0519 17.5012 37.0217 19.5861C37.1775 19.7611 37.4149 19.8397 37.6443 19.7923C37.8738 19.7449 38.0605 19.5786 38.1342 19.3562C38.2078 19.1338 38.1572 18.8889 38.0014 18.7139C36.474 17.1265 36.474 14.6158 38.0014 13.0284C38.1171 12.8985 38.1764 12.7279 38.1664 12.5543C38.1563 12.3806 38.0776 12.2181 37.9477 12.1025Z" fill="black"/>
  <path d="M39.9661 14.1209C39.7238 13.8519 39.3093 13.8302 39.0402 14.0724C38.489 14.5066 38.1674 15.1695 38.1674 15.8712C38.1674 16.5728 38.489 17.2358 39.0402 17.67C39.2134 17.8322 39.4608 17.8883 39.687 17.8164C39.9133 17.7445 40.083 17.556 40.1308 17.3235C40.1786 17.091 40.0971 16.8508 39.9176 16.6955C39.6633 16.4935 39.5045 16.1949 39.4789 15.8712C39.5045 15.5475 39.6633 15.2489 39.9176 15.0469C40.1866 14.8046 40.2083 14.3901 39.9661 14.1209Z" fill="black"/>
  <path d="M30.2981 15.8712C30.2981 12.9858 31.5906 10.1974 34.036 7.81567C34.2037 7.65167 34.2713 7.41064 34.2131 7.18337C34.1549 6.95609 33.98 6.77711 33.7541 6.71383C33.5282 6.65056 33.2857 6.71261 33.1179 6.87661C30.4161 9.51018 28.9866 12.6205 28.9866 15.8712C28.9866 19.1218 30.4161 22.2321 33.1179 24.8657C33.3772 25.1192 33.793 25.1145 34.0465 24.8552C34.3 24.5959 34.2953 24.1802 34.036 23.9267C31.5906 21.5449 30.2981 18.7566 30.2981 15.8712Z" fill="black"/>
  <path d="M27.0193 15.8712C27.0193 12.2684 28.542 8.79802 31.4241 5.83787C31.5881 5.66989 31.65 5.42718 31.5866 5.20116C31.5231 4.97514 31.3439 4.80016 31.1164 4.74212C30.8889 4.68409 30.6477 4.75181 30.4837 4.9198C27.3596 8.13307 25.7077 11.9201 25.7077 15.8712C25.7077 19.8222 27.3596 23.6092 30.4837 26.8225C30.7373 27.0822 31.1533 27.0872 31.413 26.8337C31.6727 26.5801 31.6776 26.1641 31.4241 25.9044C28.542 22.9443 27.0193 19.474 27.0193 15.8712Z" fill="black"/>
</symbol>

<symbol id="charge">
  <path d="M26.031 3.73074H12.969C11.527 3.73074 10.3539 4.90383 10.3539 6.34588V35.8079C10.3539 37.2499 11.527 38.423 12.969 38.423H26.031C27.4731 38.423 28.6462 37.2499 28.6462 35.8079V6.34597C28.6462 4.90383 27.4731 3.73074 26.031 3.73074ZM27.3846 35.8079C27.3846 36.5542 26.7772 37.1616 26.031 37.1616H12.969C12.2228 37.1616 11.6154 36.5542 11.6154 35.8079V6.34597C11.6154 5.59977 12.2228 4.99234 12.969 4.99234H26.031C26.7773 4.99234 27.3847 5.59977 27.3847 6.34597V35.8079H27.3846Z" fill="black"/>
  <path d="M22.9693 0.576935H16.0308C15.6825 0.576935 15.4 0.859395 15.4 1.20773V4.36155C15.4 4.70989 15.6825 4.99235 16.0308 4.99235H22.9693C23.3176 4.99235 23.6001 4.70989 23.6001 4.36155V1.20773C23.6 0.859395 23.3176 0.576935 22.9693 0.576935ZM22.3385 3.73075H16.6615V1.83844H22.3385V3.73075Z" fill="black"/>
  <path d="M24.1319 17.8996C24.0161 17.7175 23.8155 17.6075 23.6 17.6075H19.8154V11.9306C19.8154 11.6349 19.6099 11.379 19.3213 11.315C19.0301 11.2512 18.738 11.396 18.613 11.6639L14.1976 21.1255C14.1065 21.3207 14.1215 21.5494 14.2373 21.731C14.3531 21.9132 14.5537 22.0231 14.7692 22.0231H18.5538V27.7C18.5538 27.9957 18.7593 28.2516 19.0479 28.3157C19.0938 28.3259 19.1396 28.3308 19.1849 28.3308C19.4257 28.3308 19.6509 28.1922 19.7562 27.9667L24.1716 18.5052C24.2627 18.3099 24.2477 18.0812 24.1319 17.8996ZM18.5538 20.7615H15.7597L18.5538 14.7738V20.7615ZM19.8154 24.857V18.8692H22.6095L19.8154 24.857Z" fill="black"/>
</symbol>

<symbol id="plug">
  <path d="M29.5923 8.77691H27.7V2.46924C27.7 1.39691 26.88 0.576935 25.8077 0.576935C24.7353 0.576935 23.9154 1.39691 23.9154 2.46924V8.77691H15.0846V2.46924C15.0846 1.39691 14.2647 0.576935 13.1923 0.576935C12.12 0.576935 11.3 1.39691 11.3 2.46924V8.77691H9.40772C9.02925 8.77691 8.77697 9.02919 8.77697 9.40765V14.2015C8.77697 17.3553 9.97541 20.383 12.1201 22.7169C14.0124 24.8615 15.0847 27.6369 15.0847 30.4753V32.1153C15.0847 33.8815 16.4724 35.2692 18.2386 35.2692H18.8693V37.7923C18.8693 38.1707 19.1216 38.423 19.5001 38.423C19.8785 38.423 20.1308 38.1707 20.1308 37.7923V35.2692H20.7616C22.5277 35.2692 23.9154 33.8815 23.9154 32.1153V30.5384C23.9154 27.6369 24.9246 24.9246 26.8801 22.78C29.0247 20.4462 30.2232 17.3553 30.2232 14.2016V9.40773C30.2231 9.02927 29.9707 8.77691 29.5923 8.77691ZM25.1769 2.46924C25.1769 2.09078 25.4292 1.8385 25.8077 1.8385C26.1861 1.8385 26.4384 2.09078 26.4384 2.46924V8.77691H25.1769V2.46924ZM12.5615 2.46924C12.5615 2.15383 12.8138 1.8385 13.1923 1.8385C13.5707 1.8385 13.823 2.09078 13.823 2.46924V8.77691H12.5614V2.46924H12.5615ZM28.9615 14.1385C28.9615 17.04 27.9523 19.7524 25.9969 21.897C23.8523 24.2308 22.6539 27.3215 22.6539 30.4754V32.1154C22.6539 33.1878 21.8339 34.0077 20.7616 34.0077H18.2385C17.1662 34.0077 16.3462 33.1878 16.3462 32.1154V30.5385C16.3462 27.3847 15.1478 24.2939 13.0031 21.9601C11.1108 19.8154 10.0385 17.04 10.0385 14.2016V10.0385H11.9308H14.4538H24.5461H27.0692H28.9615V14.1385Z" fill="black"/>
  <path d="M22.0231 16.977H18.4907L21.8338 13.6339C22.0861 13.3816 22.0861 13.0031 21.8338 12.7508C21.5815 12.4984 21.2031 12.4985 20.9507 12.7508L16.5354 17.1661C16.3461 17.3554 16.2831 17.6076 16.4092 17.86C16.4722 18.1123 16.7246 18.2385 16.9769 18.2385H20.5092L17.1661 21.5816C16.9138 21.8338 16.9138 22.2123 17.1661 22.4647C17.2923 22.5908 17.4184 22.6539 17.6076 22.6539C17.7968 22.6539 17.923 22.5908 18.0491 22.4647L22.4645 18.0493C22.6537 17.8601 22.7168 17.6078 22.5907 17.3554C22.5277 17.1031 22.2754 16.977 22.0231 16.977Z" fill="black"/>
</symbol>

<symbol id="battery">
  <path d="M42.536 4H36V0H24V4H17.464C15.554 4 14 5.554 14 7.464V56.536C14 58.446 15.554 60 17.464 60H42.536C44.446 60 46 58.446 46 56.536V7.464C46 5.554 44.446 4 42.536 4ZM16 19H44V31H16V19ZM16 33H44V45H16V33ZM26 2H34V4H26V2ZM17.464 6H24H36H42.536C43.344 6 44 6.656 44 7.464V17H16V7.464C16 6.656 16.656 6 17.464 6ZM42.536 58H17.464C16.656 58 16 57.344 16 56.536V47H44V56.536C44 57.344 43.344 58 42.536 58Z" fill="black"/>
</symbol>

<symbol id="sound-benefit">
  <path d="M28.404 0.412994C27.428 -0.139006 26.273 -0.121006 25.314 0.456994C25.268 0.483994 25.224 0.515994 25.184 0.549994L11.634 12.013H1C0.447 12.013 0 12.46 0 13.013V32.013C0 32.279 0.105 32.533 0.293 32.72C0.481 32.907 0.734 33.013 1 33.013L11.61 33.008L25.153 45.448C25.203 45.494 25.257 45.534 25.314 45.568C25.806 45.865 26.351 46.014 26.896 46.014C27.413 46.013 27.929 45.88 28.404 45.612C29.403 45.048 30 44.018 30 42.857V3.16899C30 2.00799 29.403 0.977994 28.404 0.412994ZM28 42.857C28 43.288 27.783 43.667 27.421 43.872C27.266 43.959 26.873 44.127 26.421 43.898L13 31.569V27.013C13 26.46 12.553 26.013 12 26.013C11.447 26.013 11 26.46 11 27.013V31.009L2 31.013V14.013H11V18.013C11 18.566 11.447 19.013 12 19.013C12.553 19.013 13 18.566 13 18.013V13.477L26.405 2.13699C26.866 1.89499 27.265 2.06699 27.421 2.15499C27.783 2.35999 28 2.73899 28 3.16899V42.857Z" fill="black"/>
  <path d="M38.797 4.06596C38.274 3.88896 37.706 4.16896 37.528 4.69196C37.351 5.21396 37.631 5.78296 38.154 5.96096C45.255 8.37196 50.026 15.024 50.026 22.514C50.026 29.997 45.264 36.65 38.177 39.068C37.655 39.246 37.375 39.814 37.554 40.338C37.696 40.753 38.084 41.015 38.5 41.015C38.607 41.015 38.716 40.998 38.823 40.961C46.719 38.268 52.025 30.855 52.025 22.515C52.026 14.166 46.71 6.75296 38.797 4.06596Z" fill="black"/>
  <path d="M43.026 22.513C43.026 16.541 39.017 11.211 33.277 9.55098C32.744 9.39998 32.193 9.70298 32.039 10.235C31.886 10.765 32.191 11.32 32.723 11.473C37.612 12.886 41.027 17.426 41.027 22.513C41.027 27.6 37.612 32.14 32.723 33.553C32.192 33.706 31.886 34.261 32.039 34.791C32.166 35.229 32.565 35.514 33 35.514C33.092 35.514 33.185 35.501 33.277 35.475C39.018 33.815 43.026 28.485 43.026 22.513Z" fill="black"/>
</symbol>

<symbol id="speed-benefit">
  <path d="M30.634 37.989C31.675 37.908 32.624 37.377 33.24 36.53L42.603 23.586C42.89 23.189 42.847 22.641 42.499 22.293C42.151 21.946 41.603 21.903 41.206 22.189L28.26 31.555C27.416 32.169 26.885 33.118 26.804 34.159C26.723 35.2 27.1 36.219 27.837 36.956C28.508 37.628 29.413 38 30.354 38C30.447 38 30.54 37.996 30.634 37.989ZM28.798 34.315C28.833 33.858 29.067 33.441 29.435 33.173L37.332 27.46L31.621 35.355C31.351 35.726 30.934 35.959 30.477 35.995C30.022 36.025 29.575 35.867 29.25 35.542C28.928 35.219 28.762 34.771 28.798 34.315Z" fill="black"/>
  <path d="M53.034 19.564C53.024 19.543 53.024 19.521 53.013 19.5C53.001 19.48 52.982 19.469 52.969 19.45C51.958 17.716 50.762 16.103 49.404 14.641L51.552 12.494L52.966 13.908L57.208 9.665L52.966 5.423L48.723 9.665L50.138 11.08L47.99 13.227C46.528 11.869 44.916 10.672 43.181 9.661C43.162 9.648 43.151 9.629 43.131 9.617C43.11 9.605 43.088 9.606 43.067 9.595C39.974 7.813 36.499 6.626 32.794 6.191V5H34.294C35.673 5 36.794 3.879 36.794 2.5C36.794 1.121 35.672 0 34.293 0H25.293C23.914 0 22.793 1.121 22.793 2.5C22.793 3.879 23.914 5 25.293 5H26.793V6.156C25.713 6.271 24.635 6.447 23.569 6.691C23.031 6.814 22.694 7.351 22.818 7.889C22.941 8.427 23.478 8.765 24.016 8.64C24.936 8.429 25.865 8.27 26.796 8.163L27.869 8.08C28.197 8.055 28.499 8.037 28.793 8.023V10C28.793 10.553 29.24 11 29.793 11C30.346 11 30.793 10.553 30.793 10V8.03C34.554 8.203 38.098 9.213 41.249 10.875L40.263 12.582C39.987 13.061 40.151 13.672 40.629 13.948C40.786 14.039 40.958 14.082 41.128 14.082C41.474 14.082 41.81 13.903 41.995 13.582L42.978 11.879C46.107 13.864 48.765 16.522 50.75 19.651L49.047 20.634C48.57 20.91 48.406 21.521 48.683 22C48.869 22.321 49.204 22.5 49.55 22.5C49.72 22.5 49.892 22.457 50.049 22.366L51.756 21.38C53.441 24.576 54.454 28.178 54.605 31.999H52.63C52.077 31.999 51.63 32.446 51.63 32.999C51.63 33.552 52.077 33.999 52.63 33.999H54.605C54.454 37.82 53.441 41.422 51.756 44.618L50.049 43.632C49.571 43.356 48.959 43.518 48.683 43.998C48.407 44.477 48.571 45.088 49.049 45.364L50.752 46.347C48.767 49.476 46.109 52.134 42.98 54.119L41.997 52.416C41.72 51.936 41.107 51.773 40.631 52.05C40.152 52.326 39.988 52.938 40.265 53.416L41.251 55.123C38.1 56.785 34.556 57.795 30.795 57.968V56C30.795 55.447 30.348 55 29.795 55C29.242 55 28.795 55.447 28.795 56V57.976C27.198 57.921 25.596 57.721 24.019 57.359C23.481 57.23 22.944 57.572 22.821 58.11C22.697 58.648 23.034 59.185 23.572 59.308C25.568 59.768 27.607 60 29.63 60C29.679 60 29.726 59.997 29.775 59.996C29.782 59.996 29.787 60 29.793 60C29.801 60 29.808 59.995 29.816 59.995C34.623 59.962 39.133 58.664 43.035 56.422C43.066 56.408 43.099 56.401 43.129 56.383C43.149 56.371 43.16 56.352 43.179 56.339C47.218 53.985 50.593 50.614 52.952 46.578C52.971 46.551 52.995 46.53 53.012 46.5C53.024 46.479 53.023 46.457 53.033 46.436C55.317 42.476 56.63 37.89 56.63 33C56.63 28.11 55.317 23.524 53.034 19.564ZM52.965 8.251L54.379 9.665L52.965 11.08L51.55 9.665L52.965 8.251ZM28.793 6.021V3H25.293C25.018 3 24.793 2.775 24.793 2.5C24.793 2.225 25.018 2 25.293 2H34.293C34.568 2 34.793 2.225 34.793 2.5C34.793 2.775 34.568 3 34.293 3H30.793V6.021C30.445 6.007 30.113 6 29.793 6C29.765 6 29.733 6.002 29.705 6.002C29.68 6.002 29.655 6 29.63 6C29.466 6 29.302 6.011 29.138 6.014C29.022 6.017 28.913 6.016 28.793 6.021Z" fill="black"/>
  <path d="M20.793 14H15.793C15.24 14 14.793 14.447 14.793 15C14.793 15.553 15.24 16 15.793 16H20.793C21.346 16 21.793 15.553 21.793 15C21.793 14.447 21.346 14 20.793 14Z" fill="black"/>
  <path d="M20.793 21H10.793C10.24 21 9.793 21.447 9.793 22C9.793 22.553 10.24 23 10.793 23H20.793C21.346 23 21.793 22.553 21.793 22C21.793 21.447 21.346 21 20.793 21Z" fill="black"/>
  <path d="M20.793 28H5.793C5.24 28 4.793 28.447 4.793 29C4.793 29.553 5.24 30 5.793 30H20.793C21.346 30 21.793 29.553 21.793 29C21.793 28.447 21.346 28 20.793 28Z" fill="black"/>
  <path d="M20.793 35H1.793C1.24 35 0.792999 35.447 0.792999 36C0.792999 36.553 1.24 37 1.793 37H20.793C21.346 37 21.793 36.553 21.793 36C21.793 35.447 21.346 35 20.793 35Z" fill="black"/>
  <path d="M20.793 42H7.793C7.24 42 6.793 42.447 6.793 43C6.793 43.553 7.24 44 7.793 44H20.793C21.346 44 21.793 43.553 21.793 43C21.793 42.447 21.346 42 20.793 42Z" fill="black"/>
  <path d="M20.793 49H13.793C13.24 49 12.793 49.447 12.793 50C12.793 50.553 13.24 51 13.793 51H20.793C21.346 51 21.793 50.553 21.793 50C21.793 49.447 21.346 49 20.793 49Z" fill="black"/>
</symbol>
</svg>