<svg xmlns="http://www.w3.org/2000/svg">
  <symbol id="phone">
    <path
      d="M13.7455 13.0923C13.4909 13.5935 12.9818 13.8441 12.4727 14.0947C11.8364 14.4706 11.3273 14.5959 10.6909 14.5959C9.8 14.5959 8.90909 14.22 8.14545 13.9694C7.50909 13.7188 7 13.4682 6.36364 13.2176C4.58182 12.09 2.54545 10.0853 1.52727 8.45643C1.14545 7.82996 0.890909 7.32879 0.636364 6.70231C0.381818 5.82525 0 5.07349 0 4.07113C0 3.44466 0.127273 2.81819 0.509091 2.19171C0.763636 1.69054 1.01818 1.18936 1.52727 0.938771C1.90909 0.938771 2.54545 0.813477 2.92727 0.813477C3.05455 0.813477 3.05455 0.813477 3.18182 0.813477C3.43636 0.938771 3.56364 1.31465 3.69091 1.56524C3.94545 2.19171 4.32727 2.69289 4.58182 3.31936C4.83636 3.56995 5.09091 3.82054 5.09091 4.07113C5.09091 4.6976 3.30909 5.57466 3.30909 6.07584C3.30909 6.32643 3.56364 6.70231 3.69091 6.9529C4.70909 8.70702 5.98182 9.95997 7.76364 10.9623C8.01818 11.0876 8.4 11.3382 8.65455 11.3382C9.16364 11.3382 10.0545 9.58408 10.6909 9.58408C10.9455 9.58408 11.2 9.83467 11.4545 10.0853C11.9636 10.4611 12.6 10.7117 13.1091 11.0876C13.3636 11.2129 13.7455 11.3382 13.8727 11.5888C13.8727 11.7141 13.8727 11.7141 13.8727 11.8394C14 12.09 13.8727 12.7164 13.7455 13.0923Z" />
  </symbol>

  <symbol id="company-logo">
    <path
      d="M20 26C23.3 26 26 23.3 26 20C26 16.7 23.3 14 20 14C16.7 14 14 16.7 14 20C14 23.3 16.7 26 20 26ZM20 0C18 0 15.9 0.3 14 0.9V12C18.4 8.7 24.7 9.6 28 14C31.3 18.4 30.4 24.7 26 28C21.6 31.3 15.3 30.4 12 26C10.7 24.3 9.99999 22.2 9.99999 20V2.7C0.399989 8.2 -2.80001 20.4 2.69999 30C8.19999 39.6 20.4 42.8 30 37.3C39.6 31.8 42.8 19.6 37.3 10C33.8 3.8 27.2 0 20 0Z"
      fill="#E01F3D" />
  </symbol>

  <symbol id="sound">
    <path
      d="M12.5923 0.788452C6.0838 0.788452 0.788452 6.52513 0.788452 13.6081C0.813499 15.2504 1.26379 16.8582 2.0954 18.2746C2.48837 18.9449 2.82485 19.6468 3.10135 20.373C3.28473 20.9068 3.10872 21.498 2.6633 21.8446C1.88835 22.4641 1.43928 23.404 1.44422 24.3962C1.44111 25.4864 1.9801 26.5069 2.88233 27.1189C3.20669 27.3393 3.40398 27.7033 3.41153 28.0954V33.577C3.41153 37.1929 6.05888 40.1347 9.31347 40.1347C12.5681 40.1347 15.2154 37.1929 15.2154 33.577C15.2054 30.8762 16.3799 28.3068 18.4287 26.5471C22.2694 23.3425 24.4615 18.5777 24.3962 13.576C24.3962 6.52513 19.1008 0.788452 12.5923 0.788452ZM17.5762 25.551C15.2357 27.5594 13.8934 30.4929 13.9039 33.577C13.9039 36.4696 11.8441 38.8231 9.31347 38.8231C6.78285 38.8231 4.72307 36.4696 4.72307 33.577V28.0954C4.71245 27.2832 4.31391 26.5251 3.65089 26.0559C3.09063 25.69 2.75372 25.0654 2.75576 24.3962C2.75126 23.793 3.02755 23.222 3.50334 22.8512C4.37644 22.1517 4.70981 20.9754 4.33355 19.9219C4.03153 19.1275 3.66367 18.3598 3.23382 17.6267C2.51115 16.3975 2.12043 15.0017 2.09999 13.576C2.09999 7.24845 6.80711 2.09999 12.5923 2.09999C18.3775 2.09999 23.0846 7.24845 23.0846 13.576C23.1447 18.1933 21.1213 22.592 17.5762 25.551Z"
      fill="black" />
    <path
      d="M12.5923 4.06729C8.9377 4.06729 5.82148 6.6589 4.61158 10.2814C4.60306 10.303 4.59715 10.324 4.5906 10.3469C4.24485 11.3989 4.06778 12.4989 4.06598 13.6061C4.06598 14.3931 4.06598 16.7997 5.56966 18.3034C5.82697 18.5519 6.23598 18.5484 6.48893 18.2954C6.74189 18.0425 6.74544 17.6335 6.49692 17.3762C5.95817 16.7773 5.61221 16.03 5.50408 15.2318C5.60966 15.2252 5.71393 15.2167 5.82344 15.2167C8.83343 15.2154 11.2808 17.9696 11.2808 21.3534C11.2808 21.6675 11.2657 21.9626 11.2414 22.2538C10.9149 22.6024 10.5676 22.9309 10.2014 23.2374C8.29139 24.8016 7.2328 27.1762 7.34614 29.6423C7.34614 30.0045 7.63974 30.2981 8.00191 30.2981C8.36409 30.2981 8.65768 30.0045 8.65768 29.6423C8.54487 27.563 9.43359 25.5552 11.0486 24.2408C13.3623 22.465 14.6711 19.6774 14.5596 16.763C14.5596 12.6579 11.4709 9.31345 7.67403 9.31345C7.23785 9.3146 6.80296 9.36075 6.37626 9.45117C7.51611 7.0315 9.91876 5.45745 12.5923 5.37883C16.5696 5.37883 19.8058 9.06885 19.8058 13.6048C19.8573 17.1782 18.3076 20.5872 15.5813 22.8977C15.4908 22.9758 15.3905 23.0597 15.2816 23.1509C13.9766 24.2355 11.2624 26.4953 10.6289 32.1933C10.5906 32.5523 10.8498 32.8748 11.2086 32.9146C11.2325 32.9181 11.2566 32.9203 11.2808 32.9212C11.6148 32.9209 11.8952 32.6695 11.9319 32.3376C12.5071 27.1635 14.8567 25.2087 16.1197 24.1588C16.2358 24.0617 16.3427 23.9725 16.4384 23.8899C19.4567 21.3331 21.1731 17.5601 21.1173 13.6048C21.1173 8.34554 17.2929 4.06729 12.5923 4.06729ZM7.67403 10.625C10.7476 10.625 13.2481 13.3792 13.2481 16.763C13.2778 18.0038 13.0314 19.2358 12.5267 20.3697C12.0867 16.7237 9.25247 13.9038 5.82476 13.9038C5.67327 13.9038 5.52769 13.915 5.38145 13.9255C5.38145 13.7996 5.38145 13.6901 5.38145 13.6048C5.38169 12.7278 5.50712 11.8554 5.75393 11.0139C6.36201 10.7587 7.0146 10.6266 7.67403 10.625Z"
      fill="black" />
    <path
      d="M33.577 15.8712C33.6273 13.8043 34.5038 11.8439 36.0105 10.4283C36.1936 10.2657 36.2708 10.0148 36.2109 9.77745C36.151 9.54012 35.9639 9.35591 35.7257 9.29971C35.4874 9.2435 35.2377 9.32466 35.078 9.51019C33.3267 11.1684 32.3135 13.4598 32.2654 15.8712C32.3135 18.2825 33.3267 20.5739 35.078 22.2321C35.2377 22.4177 35.4874 22.4988 35.7257 22.4426C35.9639 22.3864 36.151 22.2022 36.2109 21.9649C36.2708 21.7275 36.1936 21.4766 36.0105 21.3141C34.5038 19.8984 33.6273 17.938 33.577 15.8712Z"
      fill="black" />
    <path
      d="M37.9477 12.1025C37.8178 11.9868 37.6472 11.9275 37.4736 11.9375C37.2999 11.9476 37.1374 12.0263 37.0217 12.1562C35.0519 14.2412 35.0519 17.5012 37.0217 19.5861C37.1775 19.7611 37.4149 19.8397 37.6443 19.7923C37.8738 19.7449 38.0605 19.5786 38.1342 19.3562C38.2078 19.1338 38.1572 18.8889 38.0014 18.7139C36.474 17.1265 36.474 14.6158 38.0014 13.0284C38.1171 12.8985 38.1764 12.7279 38.1664 12.5543C38.1563 12.3806 38.0776 12.2181 37.9477 12.1025Z"
      fill="black" />
    <path
      d="M39.9661 14.1209C39.7238 13.8519 39.3093 13.8302 39.0402 14.0724C38.489 14.5066 38.1674 15.1695 38.1674 15.8712C38.1674 16.5728 38.489 17.2358 39.0402 17.67C39.2134 17.8322 39.4608 17.8883 39.687 17.8164C39.9133 17.7445 40.083 17.556 40.1308 17.3235C40.1786 17.091 40.0971 16.8508 39.9176 16.6955C39.6633 16.4935 39.5045 16.1949 39.4789 15.8712C39.5045 15.5475 39.6633 15.2489 39.9176 15.0469C40.1866 14.8046 40.2083 14.3901 39.9661 14.1209Z"
      fill="black" />
    <path
      d="M30.2981 15.8712C30.2981 12.9858 31.5906 10.1974 34.036 7.81567C34.2037 7.65167 34.2713 7.41064 34.2131 7.18337C34.1549 6.95609 33.98 6.77711 33.7541 6.71383C33.5282 6.65056 33.2857 6.71261 33.1179 6.87661C30.4161 9.51018 28.9866 12.6205 28.9866 15.8712C28.9866 19.1218 30.4161 22.2321 33.1179 24.8657C33.3772 25.1192 33.793 25.1145 34.0465 24.8552C34.3 24.5959 34.2953 24.1802 34.036 23.9267C31.5906 21.5449 30.2981 18.7566 30.2981 15.8712Z"
      fill="black" />
    <path
      d="M27.0193 15.8712C27.0193 12.2684 28.542 8.79802 31.4241 5.83787C31.5881 5.66989 31.65 5.42718 31.5866 5.20116C31.5231 4.97514 31.3439 4.80016 31.1164 4.74212C30.8889 4.68409 30.6477 4.75181 30.4837 4.9198C27.3596 8.13307 25.7077 11.9201 25.7077 15.8712C25.7077 19.8222 27.3596 23.6092 30.4837 26.8225C30.7373 27.0822 31.1533 27.0872 31.413 26.8337C31.6727 26.5801 31.6776 26.1641 31.4241 25.9044C28.542 22.9443 27.0193 19.474 27.0193 15.8712Z"
      fill="black" />
  </symbol>

  <symbol id="charge">
    <path
      d="M26.031 3.73074H12.969C11.527 3.73074 10.3539 4.90383 10.3539 6.34588V35.8079C10.3539 37.2499 11.527 38.423 12.969 38.423H26.031C27.4731 38.423 28.6462 37.2499 28.6462 35.8079V6.34597C28.6462 4.90383 27.4731 3.73074 26.031 3.73074ZM27.3846 35.8079C27.3846 36.5542 26.7772 37.1616 26.031 37.1616H12.969C12.2228 37.1616 11.6154 36.5542 11.6154 35.8079V6.34597C11.6154 5.59977 12.2228 4.99234 12.969 4.99234H26.031C26.7773 4.99234 27.3847 5.59977 27.3847 6.34597V35.8079H27.3846Z"
      fill="black" />
    <path
      d="M22.9693 0.576935H16.0308C15.6825 0.576935 15.4 0.859395 15.4 1.20773V4.36155C15.4 4.70989 15.6825 4.99235 16.0308 4.99235H22.9693C23.3176 4.99235 23.6001 4.70989 23.6001 4.36155V1.20773C23.6 0.859395 23.3176 0.576935 22.9693 0.576935ZM22.3385 3.73075H16.6615V1.83844H22.3385V3.73075Z"
      fill="black" />
    <path
      d="M24.1319 17.8996C24.0161 17.7175 23.8155 17.6075 23.6 17.6075H19.8154V11.9306C19.8154 11.6349 19.6099 11.379 19.3213 11.315C19.0301 11.2512 18.738 11.396 18.613 11.6639L14.1976 21.1255C14.1065 21.3207 14.1215 21.5494 14.2373 21.731C14.3531 21.9132 14.5537 22.0231 14.7692 22.0231H18.5538V27.7C18.5538 27.9957 18.7593 28.2516 19.0479 28.3157C19.0938 28.3259 19.1396 28.3308 19.1849 28.3308C19.4257 28.3308 19.6509 28.1922 19.7562 27.9667L24.1716 18.5052C24.2627 18.3099 24.2477 18.0812 24.1319 17.8996ZM18.5538 20.7615H15.7597L18.5538 14.7738V20.7615ZM19.8154 24.857V18.8692H22.6095L19.8154 24.857Z"
      fill="black" />
  </symbol>

  <symbol id="plug">
    <path
      d="M29.5923 8.77691H27.7V2.46924C27.7 1.39691 26.88 0.576935 25.8077 0.576935C24.7353 0.576935 23.9154 1.39691 23.9154 2.46924V8.77691H15.0846V2.46924C15.0846 1.39691 14.2647 0.576935 13.1923 0.576935C12.12 0.576935 11.3 1.39691 11.3 2.46924V8.77691H9.40772C9.02925 8.77691 8.77697 9.02919 8.77697 9.40765V14.2015C8.77697 17.3553 9.97541 20.383 12.1201 22.7169C14.0124 24.8615 15.0847 27.6369 15.0847 30.4753V32.1153C15.0847 33.8815 16.4724 35.2692 18.2386 35.2692H18.8693V37.7923C18.8693 38.1707 19.1216 38.423 19.5001 38.423C19.8785 38.423 20.1308 38.1707 20.1308 37.7923V35.2692H20.7616C22.5277 35.2692 23.9154 33.8815 23.9154 32.1153V30.5384C23.9154 27.6369 24.9246 24.9246 26.8801 22.78C29.0247 20.4462 30.2232 17.3553 30.2232 14.2016V9.40773C30.2231 9.02927 29.9707 8.77691 29.5923 8.77691ZM25.1769 2.46924C25.1769 2.09078 25.4292 1.8385 25.8077 1.8385C26.1861 1.8385 26.4384 2.09078 26.4384 2.46924V8.77691H25.1769V2.46924ZM12.5615 2.46924C12.5615 2.15383 12.8138 1.8385 13.1923 1.8385C13.5707 1.8385 13.823 2.09078 13.823 2.46924V8.77691H12.5614V2.46924H12.5615ZM28.9615 14.1385C28.9615 17.04 27.9523 19.7524 25.9969 21.897C23.8523 24.2308 22.6539 27.3215 22.6539 30.4754V32.1154C22.6539 33.1878 21.8339 34.0077 20.7616 34.0077H18.2385C17.1662 34.0077 16.3462 33.1878 16.3462 32.1154V30.5385C16.3462 27.3847 15.1478 24.2939 13.0031 21.9601C11.1108 19.8154 10.0385 17.04 10.0385 14.2016V10.0385H11.9308H14.4538H24.5461H27.0692H28.9615V14.1385Z"
      fill="black" />
    <path
      d="M22.0231 16.977H18.4907L21.8338 13.6339C22.0861 13.3816 22.0861 13.0031 21.8338 12.7508C21.5815 12.4984 21.2031 12.4985 20.9507 12.7508L16.5354 17.1661C16.3461 17.3554 16.2831 17.6076 16.4092 17.86C16.4722 18.1123 16.7246 18.2385 16.9769 18.2385H20.5092L17.1661 21.5816C16.9138 21.8338 16.9138 22.2123 17.1661 22.4647C17.2923 22.5908 17.4184 22.6539 17.6076 22.6539C17.7968 22.6539 17.923 22.5908 18.0491 22.4647L22.4645 18.0493C22.6537 17.8601 22.7168 17.6078 22.5907 17.3554C22.5277 17.1031 22.2754 16.977 22.0231 16.977Z"
      fill="black" />
  </symbol>

  <symbol id="battery">
    <path
      d="M42.536 4H36V0H24V4H17.464C15.554 4 14 5.554 14 7.464V56.536C14 58.446 15.554 60 17.464 60H42.536C44.446 60 46 58.446 46 56.536V7.464C46 5.554 44.446 4 42.536 4ZM16 19H44V31H16V19ZM16 33H44V45H16V33ZM26 2H34V4H26V2ZM17.464 6H24H36H42.536C43.344 6 44 6.656 44 7.464V17H16V7.464C16 6.656 16.656 6 17.464 6ZM42.536 58H17.464C16.656 58 16 57.344 16 56.536V47H44V56.536C44 57.344 43.344 58 42.536 58Z"
      fill="black" />
  </symbol>

  <symbol id="sound-benefit">
    <path
      d="M28.404 0.412994C27.428 -0.139006 26.273 -0.121006 25.314 0.456994C25.268 0.483994 25.224 0.515994 25.184 0.549994L11.634 12.013H1C0.447 12.013 0 12.46 0 13.013V32.013C0 32.279 0.105 32.533 0.293 32.72C0.481 32.907 0.734 33.013 1 33.013L11.61 33.008L25.153 45.448C25.203 45.494 25.257 45.534 25.314 45.568C25.806 45.865 26.351 46.014 26.896 46.014C27.413 46.013 27.929 45.88 28.404 45.612C29.403 45.048 30 44.018 30 42.857V3.16899C30 2.00799 29.403 0.977994 28.404 0.412994ZM28 42.857C28 43.288 27.783 43.667 27.421 43.872C27.266 43.959 26.873 44.127 26.421 43.898L13 31.569V27.013C13 26.46 12.553 26.013 12 26.013C11.447 26.013 11 26.46 11 27.013V31.009L2 31.013V14.013H11V18.013C11 18.566 11.447 19.013 12 19.013C12.553 19.013 13 18.566 13 18.013V13.477L26.405 2.13699C26.866 1.89499 27.265 2.06699 27.421 2.15499C27.783 2.35999 28 2.73899 28 3.16899V42.857Z"
      fill="black" />
    <path
      d="M38.797 4.06596C38.274 3.88896 37.706 4.16896 37.528 4.69196C37.351 5.21396 37.631 5.78296 38.154 5.96096C45.255 8.37196 50.026 15.024 50.026 22.514C50.026 29.997 45.264 36.65 38.177 39.068C37.655 39.246 37.375 39.814 37.554 40.338C37.696 40.753 38.084 41.015 38.5 41.015C38.607 41.015 38.716 40.998 38.823 40.961C46.719 38.268 52.025 30.855 52.025 22.515C52.026 14.166 46.71 6.75296 38.797 4.06596Z"
      fill="black" />
    <path
      d="M43.026 22.513C43.026 16.541 39.017 11.211 33.277 9.55098C32.744 9.39998 32.193 9.70298 32.039 10.235C31.886 10.765 32.191 11.32 32.723 11.473C37.612 12.886 41.027 17.426 41.027 22.513C41.027 27.6 37.612 32.14 32.723 33.553C32.192 33.706 31.886 34.261 32.039 34.791C32.166 35.229 32.565 35.514 33 35.514C33.092 35.514 33.185 35.501 33.277 35.475C39.018 33.815 43.026 28.485 43.026 22.513Z"
      fill="black" />
  </symbol>

  <symbol id="speed-benefit">
    <path
      d="M30.634 37.989C31.675 37.908 32.624 37.377 33.24 36.53L42.603 23.586C42.89 23.189 42.847 22.641 42.499 22.293C42.151 21.946 41.603 21.903 41.206 22.189L28.26 31.555C27.416 32.169 26.885 33.118 26.804 34.159C26.723 35.2 27.1 36.219 27.837 36.956C28.508 37.628 29.413 38 30.354 38C30.447 38 30.54 37.996 30.634 37.989ZM28.798 34.315C28.833 33.858 29.067 33.441 29.435 33.173L37.332 27.46L31.621 35.355C31.351 35.726 30.934 35.959 30.477 35.995C30.022 36.025 29.575 35.867 29.25 35.542C28.928 35.219 28.762 34.771 28.798 34.315Z"
      fill="black" />
    <path
      d="M53.034 19.564C53.024 19.543 53.024 19.521 53.013 19.5C53.001 19.48 52.982 19.469 52.969 19.45C51.958 17.716 50.762 16.103 49.404 14.641L51.552 12.494L52.966 13.908L57.208 9.665L52.966 5.423L48.723 9.665L50.138 11.08L47.99 13.227C46.528 11.869 44.916 10.672 43.181 9.661C43.162 9.648 43.151 9.629 43.131 9.617C43.11 9.605 43.088 9.606 43.067 9.595C39.974 7.813 36.499 6.626 32.794 6.191V5H34.294C35.673 5 36.794 3.879 36.794 2.5C36.794 1.121 35.672 0 34.293 0H25.293C23.914 0 22.793 1.121 22.793 2.5C22.793 3.879 23.914 5 25.293 5H26.793V6.156C25.713 6.271 24.635 6.447 23.569 6.691C23.031 6.814 22.694 7.351 22.818 7.889C22.941 8.427 23.478 8.765 24.016 8.64C24.936 8.429 25.865 8.27 26.796 8.163L27.869 8.08C28.197 8.055 28.499 8.037 28.793 8.023V10C28.793 10.553 29.24 11 29.793 11C30.346 11 30.793 10.553 30.793 10V8.03C34.554 8.203 38.098 9.213 41.249 10.875L40.263 12.582C39.987 13.061 40.151 13.672 40.629 13.948C40.786 14.039 40.958 14.082 41.128 14.082C41.474 14.082 41.81 13.903 41.995 13.582L42.978 11.879C46.107 13.864 48.765 16.522 50.75 19.651L49.047 20.634C48.57 20.91 48.406 21.521 48.683 22C48.869 22.321 49.204 22.5 49.55 22.5C49.72 22.5 49.892 22.457 50.049 22.366L51.756 21.38C53.441 24.576 54.454 28.178 54.605 31.999H52.63C52.077 31.999 51.63 32.446 51.63 32.999C51.63 33.552 52.077 33.999 52.63 33.999H54.605C54.454 37.82 53.441 41.422 51.756 44.618L50.049 43.632C49.571 43.356 48.959 43.518 48.683 43.998C48.407 44.477 48.571 45.088 49.049 45.364L50.752 46.347C48.767 49.476 46.109 52.134 42.98 54.119L41.997 52.416C41.72 51.936 41.107 51.773 40.631 52.05C40.152 52.326 39.988 52.938 40.265 53.416L41.251 55.123C38.1 56.785 34.556 57.795 30.795 57.968V56C30.795 55.447 30.348 55 29.795 55C29.242 55 28.795 55.447 28.795 56V57.976C27.198 57.921 25.596 57.721 24.019 57.359C23.481 57.23 22.944 57.572 22.821 58.11C22.697 58.648 23.034 59.185 23.572 59.308C25.568 59.768 27.607 60 29.63 60C29.679 60 29.726 59.997 29.775 59.996C29.782 59.996 29.787 60 29.793 60C29.801 60 29.808 59.995 29.816 59.995C34.623 59.962 39.133 58.664 43.035 56.422C43.066 56.408 43.099 56.401 43.129 56.383C43.149 56.371 43.16 56.352 43.179 56.339C47.218 53.985 50.593 50.614 52.952 46.578C52.971 46.551 52.995 46.53 53.012 46.5C53.024 46.479 53.023 46.457 53.033 46.436C55.317 42.476 56.63 37.89 56.63 33C56.63 28.11 55.317 23.524 53.034 19.564ZM52.965 8.251L54.379 9.665L52.965 11.08L51.55 9.665L52.965 8.251ZM28.793 6.021V3H25.293C25.018 3 24.793 2.775 24.793 2.5C24.793 2.225 25.018 2 25.293 2H34.293C34.568 2 34.793 2.225 34.793 2.5C34.793 2.775 34.568 3 34.293 3H30.793V6.021C30.445 6.007 30.113 6 29.793 6C29.765 6 29.733 6.002 29.705 6.002C29.68 6.002 29.655 6 29.63 6C29.466 6 29.302 6.011 29.138 6.014C29.022 6.017 28.913 6.016 28.793 6.021Z"
      fill="black" />
    <path
      d="M20.793 14H15.793C15.24 14 14.793 14.447 14.793 15C14.793 15.553 15.24 16 15.793 16H20.793C21.346 16 21.793 15.553 21.793 15C21.793 14.447 21.346 14 20.793 14Z"
      fill="black" />
    <path
      d="M20.793 21H10.793C10.24 21 9.793 21.447 9.793 22C9.793 22.553 10.24 23 10.793 23H20.793C21.346 23 21.793 22.553 21.793 22C21.793 21.447 21.346 21 20.793 21Z"
      fill="black" />
    <path
      d="M20.793 28H5.793C5.24 28 4.793 28.447 4.793 29C4.793 29.553 5.24 30 5.793 30H20.793C21.346 30 21.793 29.553 21.793 29C21.793 28.447 21.346 28 20.793 28Z"
      fill="black" />
    <path
      d="M20.793 35H1.793C1.24 35 0.792999 35.447 0.792999 36C0.792999 36.553 1.24 37 1.793 37H20.793C21.346 37 21.793 36.553 21.793 36C21.793 35.447 21.346 35 20.793 35Z"
      fill="black" />
    <path
      d="M20.793 42H7.793C7.24 42 6.793 42.447 6.793 43C6.793 43.553 7.24 44 7.793 44H20.793C21.346 44 21.793 43.553 21.793 43C21.793 42.447 21.346 42 20.793 42Z"
      fill="black" />
    <path
      d="M20.793 49H13.793C13.24 49 12.793 49.447 12.793 50C12.793 50.553 13.24 51 13.793 51H20.793C21.346 51 21.793 50.553 21.793 50C21.793 49.447 21.346 49 20.793 49Z"
      fill="black" />
  </symbol>

  <symbol id="vk">
    <path
      d="M12 0C5.37423 0 0 5.37423 0 12C0 18.6258 5.37423 24 12 24C18.6258 24 24 18.6258 24 12C24 5.37423 18.6258 0 12 0ZM18.0859 13.3006C18.6503 13.8405 19.2393 14.3558 19.7301 14.9693C19.9509 15.2393 20.1718 15.5092 20.319 15.8282C20.5399 16.2699 20.3436 16.7607 19.9509 16.7853H17.4969C16.8589 16.8344 16.3681 16.589 15.9264 16.1472C15.5828 15.8037 15.2638 15.4356 14.9448 15.0675C14.8221 14.9202 14.6748 14.773 14.5031 14.6748C14.1595 14.454 13.865 14.5276 13.6933 14.8712C13.4969 15.2393 13.4479 15.6319 13.4233 16.0245C13.3988 16.6135 13.227 16.7607 12.638 16.7853C11.3865 16.8344 10.2086 16.6626 9.12883 16.0245C8.17178 15.4601 7.41104 14.6994 6.77301 13.816C5.49693 12.0982 4.53988 10.2086 3.65644 8.26994C3.46012 7.82822 3.60736 7.60736 4.09816 7.58282C4.90798 7.55828 5.69325 7.55828 6.50307 7.58282C6.82209 7.58282 7.04294 7.77914 7.16564 8.07362C7.60736 9.12883 8.1227 10.1595 8.78528 11.092C8.95705 11.3374 9.15337 11.5828 9.39877 11.7791C9.69325 11.9755 9.88957 11.9018 10.0368 11.5828C10.1104 11.3865 10.1595 11.1656 10.184 10.9448C10.2577 10.2086 10.2577 9.47239 10.135 8.7362C10.0613 8.2454 9.81595 7.95092 9.34969 7.85276C9.10429 7.80368 9.15337 7.73006 9.25153 7.58282C9.44785 7.36196 9.64417 7.21472 10.0123 7.21472H12.7853C13.227 7.31288 13.3252 7.48466 13.3742 7.92638V11.0184C13.3742 11.1902 13.4479 11.7055 13.7669 11.8037C14.0123 11.8773 14.184 11.681 14.3313 11.5337C14.9939 10.8221 15.4601 9.98773 15.9018 9.12883C16.0982 8.7362 16.2454 8.34356 16.4172 7.95092C16.5399 7.65644 16.7117 7.5092 17.0552 7.5092H19.7301C19.8037 7.5092 19.8773 7.5092 19.9755 7.53374C20.4172 7.60736 20.5399 7.80368 20.4172 8.2454C20.1963 8.93251 19.7791 9.52147 19.362 10.0859C18.9202 10.6994 18.4294 11.2883 17.9877 11.9264C17.546 12.5153 17.5706 12.8098 18.0859 13.3006Z" />
  </symbol>

  <symbol id="facebook">
    <path
      d="M24 12C24 5.37188 18.6281 0 12 0C5.37188 0 0 5.37188 0 12C0 18.6281 5.37188 24 12 24C12.0703 24 12.1406 24 12.2109 23.9953V14.6578H9.63281V11.6531H12.2109V9.44062C12.2109 6.87656 13.7766 5.47969 16.0641 5.47969C17.1609 5.47969 18.1031 5.55938 18.375 5.59688V8.27813H16.8C15.5578 8.27813 15.3141 8.86875 15.3141 9.73594V11.6484H18.2906L17.9016 14.6531H15.3141V23.5359C20.3297 22.0969 24 17.4797 24 12Z" />
  </symbol>

  <symbol id="instagram">
    <path
      d="M14.2969 12C14.2969 13.2703 13.2703 14.2969 12 14.2969C10.7297 14.2969 9.70312 13.2703 9.70312 12C9.70312 10.7297 10.7297 9.70312 12 9.70312C13.2703 9.70312 14.2969 10.7297 14.2969 12Z"
      fill="#B3B3B3" />
    <path
      d="M17.3719 7.93593C17.2594 7.63593 17.0859 7.36405 16.8563 7.14374C16.6359 6.91405 16.3641 6.74061 16.0641 6.62811C15.8203 6.53436 15.4547 6.42186 14.7844 6.38905C14.0578 6.35624 13.8375 6.34686 12 6.34686C10.1578 6.34686 9.94219 6.35155 9.21563 6.38905C8.54531 6.42186 8.17969 6.53436 7.93594 6.62811C7.63594 6.74061 7.36406 6.91405 7.14375 7.14374C6.91406 7.36405 6.74062 7.63593 6.62812 7.93593C6.53437 8.17968 6.42187 8.5453 6.38906 9.21561C6.35625 9.94218 6.34687 10.1578 6.34687 12C6.34687 13.8375 6.35625 14.0578 6.38906 14.7844C6.42187 15.4547 6.52969 15.8203 6.62812 16.0641C6.74062 16.364 6.91406 16.6359 7.14375 16.8562C7.36406 17.0859 7.63594 17.2594 7.93594 17.3719C8.17969 17.4656 8.54531 17.5781 9.21563 17.6109C9.94219 17.6437 10.1578 17.6531 12 17.6531C13.8422 17.6531 14.0578 17.6484 14.7844 17.6109C15.4547 17.5781 15.8203 17.4703 16.0641 17.3719C16.6641 17.1422 17.1422 16.6641 17.3719 16.0641C17.4656 15.8203 17.5781 15.4547 17.6109 14.7844C17.6438 14.0578 17.6531 13.8375 17.6531 12C17.6531 10.1578 17.6484 9.94218 17.6109 9.21561C17.5781 8.5453 17.4656 8.17968 17.3719 7.93593ZM12 15.5391C10.0453 15.5391 8.46094 13.9547 8.46094 12C8.46094 10.0453 10.0453 8.46093 12 8.46093C13.9547 8.46093 15.5391 10.0453 15.5391 12C15.5391 13.9547 13.9547 15.5391 12 15.5391ZM15.6797 9.14999C15.225 9.14999 14.8547 8.77968 14.8547 8.32499C14.8547 7.8703 15.225 7.49999 15.6797 7.49999C16.1344 7.49999 16.5047 7.8703 16.5047 8.32499C16.5047 8.77968 16.1344 9.14999 15.6797 9.14999Z" />
    <path
      d="M12 0C5.37188 0 0 5.37188 0 12C0 18.6281 5.37188 24 12 24C18.6281 24 24 18.6281 24 12C24 5.37188 18.6281 0 12 0ZM18.8484 14.8406C18.8156 15.5719 18.6984 16.0734 18.5297 16.5141C18.1734 17.4375 17.4422 18.1734 16.5141 18.5297C16.0781 18.6984 15.5766 18.8156 14.8406 18.8484C14.1047 18.8813 13.8703 18.8906 12 18.8906C10.1297 18.8906 9.89531 18.8813 9.15937 18.8484C8.42812 18.8156 7.92656 18.6984 7.48594 18.5297C7.02656 18.3562 6.60938 18.0844 6.26719 17.7328C5.91562 17.3906 5.64375 16.9734 5.47031 16.5141C5.30156 16.0781 5.18438 15.5766 5.15156 14.8406C5.11875 14.1047 5.10938 13.8703 5.10938 12C5.10938 10.1297 5.11875 9.89531 5.15156 9.15937C5.18438 8.42812 5.30156 7.92656 5.47031 7.48594C5.64375 7.02656 5.91562 6.60938 6.26719 6.26719C6.60938 5.91562 7.02656 5.64375 7.48594 5.47031C7.92656 5.30156 8.42344 5.18438 9.15937 5.15156C9.89531 5.11875 10.1297 5.10938 12 5.10938C13.8703 5.10938 14.1047 5.11875 14.8406 5.15156C15.5719 5.18438 16.0734 5.30156 16.5141 5.47031C16.9734 5.64375 17.3906 5.91562 17.7328 6.26719C18.0844 6.60938 18.3562 7.02656 18.5297 7.48594C18.6984 7.92656 18.8156 8.42344 18.8484 9.15937C18.8813 9.89531 18.8906 10.1297 18.8906 12C18.8906 13.8703 18.8813 14.1047 18.8484 14.8406Z" />
  </symbol>

  <symbol id="telegram">
    <path
      d="M12 24C18.6281 24 24 18.6281 24 12C24 5.37188 18.6281 0 12 0C5.37188 0 0 5.37188 0 12C0 18.6281 5.37188 24 12 24ZM5.48906 11.7422L17.0625 7.27969C17.6016 7.0875 18.0703 7.41094 17.8922 8.22187L15.9234 17.5031C15.7781 18.1594 15.3844 18.3234 14.8406 18.0094L11.8406 15.7969L10.3922 17.1891C10.2328 17.3484 10.0969 17.4844 9.7875 17.4844L9.99844 14.4328L15.5625 9.4125C15.8062 9.20156 15.5063 9.07969 15.1875 9.29062L8.31562 13.6172L5.35312 12.6937C4.71094 12.4875 4.69688 12.0516 5.48906 11.7422Z" />
  </symbol>

  <symbol id="close">
    <path
      d="M16.2667 12L23.2 5.06667C24.2667 4 24.2667 2.4 23.2 1.46667L22.6667 0.933333C21.6 -0.133333 20 -0.133333 19.0667 0.933333L12 7.73333L5.06667 0.8C4 -0.266667 2.4 -0.266667 1.33333 0.8L0.8 1.33333C-0.266667 2.4 -0.266667 4 0.8 4.93333L7.73333 12L0.8 18.9333C-0.266667 20 -0.266667 21.6 0.8 22.5333L1.33333 23.2C2.4 24.2667 4 24.2667 4.93333 23.2L12 16.2667L18.9333 23.2C20 24.2667 21.6 24.2667 22.5333 23.2L23.0667 22.6667C24.1333 21.6 24.1333 20 23.0667 19.0667L16.2667 12Z" />
  </symbol>

  <symbol id="kg">
    <path
      d="M20.3373 6.39972H14.9742C15.5392 5.7226 15.88 4.85193 15.88 3.90308C15.88 1.75085 14.1292 0 11.9771 0C9.82489 0 8.07404 1.75085 8.07404 3.90308C8.07404 4.85193 8.41479 5.7226 8.97986 6.39972H3.6167L0.28125 24H23.6728L20.3373 6.39972ZM11.9771 1.40625C13.3537 1.40625 14.4738 2.52631 14.4738 3.90308C14.4738 5.27966 13.3537 6.39972 11.9771 6.39972C10.6003 6.39972 9.48029 5.27966 9.48029 3.90308C9.48029 2.52631 10.6003 1.40625 11.9771 1.40625V1.40625ZM4.78143 7.80597H19.1726L21.975 22.5938H1.979L4.78143 7.80597Z"
      fill="black" />
    <path
      d="M12.0055 12.4026H10.4094L8.17786 14.631V12.4026H7.03088V18.0225H8.17786V16.1017L8.75629 15.5378L10.5044 18.0225H11.985L9.57532 14.7497L12.0055 12.4026Z"
      fill="black" />
    <path
      d="M14.2747 16.0007H15.7903V16.617C15.6685 16.7058 15.5026 16.793 15.2955 16.8766C15.0436 16.9786 14.7817 17.0303 14.5177 17.0303C14.2154 17.0303 13.9261 16.9627 13.6575 16.8294C13.3986 16.701 13.2063 16.5092 13.0701 16.2426C12.9294 15.9677 12.8582 15.6152 12.8582 15.195C12.8582 14.8546 12.9186 14.5355 13.0371 14.2474C13.1041 14.0872 13.1995 13.938 13.3207 13.8034C13.4363 13.6752 13.5936 13.569 13.7878 13.4879C13.9858 13.4053 14.2277 13.3634 14.5071 13.3634C14.7347 13.3634 14.9432 13.4028 15.1269 13.4804C15.3016 13.5542 15.4356 13.6511 15.5251 13.7681C15.6222 13.8948 15.7062 14.0775 15.7751 14.3113L15.8395 14.5302L16.8955 14.2405L16.8386 14.0191C16.7417 13.6419 16.5959 13.329 16.4052 13.0886C16.2094 12.8419 15.939 12.6482 15.601 12.5127C15.2736 12.3814 14.9044 12.3149 14.5036 12.3149C13.9539 12.3149 13.4592 12.4307 13.0331 12.6588C12.5969 12.8925 12.2585 13.2534 12.028 13.7314C11.8037 14.1962 11.6902 14.7026 11.6902 15.2373C11.6902 15.7786 11.8052 16.277 12.0324 16.7184C12.2648 17.1703 12.6132 17.5203 13.0684 17.7587C13.5139 17.9921 14.0145 18.1106 14.5563 18.1106C14.9579 18.1106 15.3547 18.0375 15.7357 17.8932C16.1131 17.7506 16.4832 17.5356 16.8356 17.2546L16.9233 17.1848V14.9271L14.2747 14.9313V16.0007Z"
      fill="black" />
  </symbol>

  <symbol id="road">
    <path
      d="M5.25 4.5C2.355 4.5 0 6.855 0 9.75C0 12.444 4.212 17.2155 4.692 17.751C4.8345 17.9085 5.037 18 5.25 18C5.463 18 5.6655 17.9085 5.808 17.751C6.288 17.2155 10.5 12.444 10.5 9.75C10.5 6.855 8.145 4.5 5.25 4.5ZM5.25 16.1055C3.612 14.163 1.5 11.181 1.5 9.75C1.5 7.683 3.183 6 5.25 6C7.317 6 9 7.683 9 9.75C9 11.1795 6.888 14.163 5.25 16.1055Z"
      fill="black" />
    <path
      d="M5.25 7.5C4.0095 7.5 3 8.5095 3 9.75C3 10.9905 4.0095 12 5.25 12C6.4905 12 7.5 10.9905 7.5 9.75C7.5 8.5095 6.4905 7.5 5.25 7.5ZM5.25 10.5C4.836 10.5 4.5 10.164 4.5 9.75C4.5 9.336 4.836 9 5.25 9C5.664 9 6 9.336 6 9.75C6 10.164 5.664 10.5 5.25 10.5Z"
      fill="black" />
    <path
      d="M23.25 0H17.25C16.836 0 16.5 0.336 16.5 0.75V5.25V8.25C16.5 8.664 16.836 9 17.25 9C17.664 9 18 8.664 18 8.25V6H23.25C23.664 6 24 5.664 24 5.25V0.75C24 0.336 23.664 0 23.25 0ZM22.5 4.5H18V1.5H22.5V4.5Z"
      fill="black" />
    <path
      d="M21 16.5H13.5C12.6735 16.5 12 15.8265 12 15C12 14.1735 12.6735 13.5 13.5 13.5H15.138C15.4485 14.3715 16.2735 15 17.25 15C18.4905 15 19.5 13.9905 19.5 12.75C19.5 11.5095 18.4905 10.5 17.25 10.5C16.2735 10.5 15.4485 11.1285 15.138 12H13.5C11.8455 12 10.5 13.3455 10.5 15C10.5 16.6545 11.8455 18 13.5 18H21C21.8265 18 22.5 18.6735 22.5 19.5C22.5 20.3265 21.8265 21 21 21H7.362C7.0515 20.1285 6.2265 19.5 5.25 19.5C4.0095 19.5 3 20.5095 3 21.75C3 22.9905 4.0095 24 5.25 24C6.2265 24 7.0515 23.3715 7.362 22.5H21C22.6545 22.5 24 21.1545 24 19.5C24 17.8455 22.6545 16.5 21 16.5ZM17.25 12C17.664 12 18 12.336 18 12.75C18 13.164 17.664 13.5 17.25 13.5C16.836 13.5 16.5 13.164 16.5 12.75C16.5 12.336 16.836 12 17.25 12ZM5.25 22.5C4.836 22.5 4.5 22.164 4.5 21.75C4.5 21.336 4.836 21 5.25 21C5.664 21 6 21.336 6 21.75C6 22.164 5.664 22.5 5.25 22.5Z"
      fill="black" />
  </symbol>

  <symbol id="charger">
    <path
      d="M22.08 7.22742V5.1261C22.08 4.73627 21.7639 4.42022 21.3741 4.42022H18.096C17.7062 4.42022 17.3901 4.73627 17.3901 5.1261V7.22742C17.0301 7.25961 16.7478 7.56173 16.7478 7.9301V11.7258C16.7478 12.5907 17.4515 13.2943 18.3164 13.2943H19.0292V20.8141C19.0292 21.7924 18.2331 22.5882 17.2546 22.5882H9.53835C8.56009 22.5882 7.76423 21.7924 7.76423 20.8141V19.2941H9.26541C9.65524 19.2941 9.97129 18.9781 9.97129 18.5882V16.298H10.7211C11.8887 16.298 12.8387 15.348 12.8387 14.1804V7.7782C12.8387 6.82606 12.207 6.01886 11.3407 5.75326V3.33269C11.3407 2.94286 11.0247 2.62681 10.6348 2.62681H9.64705V0.705867C9.64705 0.316032 9.33101 -1.52588e-05 8.94117 -1.52588e-05C8.55133 -1.52588e-05 8.23529 0.316032 8.23529 0.705867V2.62681H5.88141V0.705867C5.88141 0.316032 5.56536 -1.52588e-05 5.17552 -1.52588e-05C4.78569 -1.52588e-05 4.46964 0.316032 4.46964 0.705867V2.62681H3.48188C3.09204 2.62681 2.77599 2.94286 2.77599 3.33269V5.75326C1.90969 6.01886 1.27797 6.82601 1.27797 7.7782V14.1804C1.27797 15.348 2.22795 16.298 3.39562 16.298H4.1454V18.5882C4.1454 18.9781 4.46145 19.2941 4.85129 19.2941H6.35246V20.8141C6.35246 22.5708 7.78164 24 9.53835 24H17.2546C19.0115 24 20.4409 22.5708 20.4409 20.8141V13.2943H21.1535C22.0184 13.2943 22.7221 12.5907 22.7221 11.7258V7.9301C22.7221 7.56177 22.4399 7.25975 22.08 7.22742V7.22742ZM9.92894 4.03857V5.66055H4.18776V4.03857H9.92894ZM2.68969 14.1804V7.7782C2.68969 7.38897 3.00635 7.07231 3.39557 7.07231H10.7211C11.1103 7.07231 11.427 7.38897 11.427 7.7782V14.1804C11.427 14.5696 11.1103 14.8862 10.7211 14.8862C10.4253 14.8862 3.73246 14.8862 3.39557 14.8862C3.00635 14.8862 2.68969 14.5696 2.68969 14.1804ZM5.55717 16.298H8.55952V17.8823H5.55717V16.298ZM20.6682 5.83198V7.22422H18.8019V5.83198H20.6682ZM21.3103 11.7258C21.3103 11.8122 21.2399 11.8825 21.1535 11.8825C21.0671 11.8825 19.1153 11.8825 18.3164 11.8825C18.2299 11.8825 18.1596 11.8122 18.1596 11.7258V8.63598H21.3103V11.7258Z"
      fill="black" />
    <path
      d="M6.16377 11.6852H6.87986L6.56777 12.409C6.41341 12.767 6.5785 13.1823 6.93643 13.3367C7.29497 13.4911 7.70994 13.3256 7.8641 12.968L8.60109 11.2588C8.80203 10.7928 8.45925 10.2735 7.9529 10.2735H7.2368L7.5489 9.54969C7.70325 9.19172 7.53817 8.77633 7.18024 8.62198C6.82217 8.46767 6.40687 8.63275 6.25257 8.99068L5.51558 10.6998C5.31464 11.1657 5.65741 11.6852 6.16377 11.6852V11.6852Z"
      fill="black" />
  </symbol>

  <symbol id="bluetooth">
    <path
      d="M18.2054 17.5212L13.1636 12L18.2054 6.47945C18.3637 6.30559 18.4445 6.07393 18.4276 5.83904C18.4107 5.60391 18.2984 5.38594 18.1163 5.23646L11.9874 0.195941C11.7305 -0.015418 11.3753 -0.0598087 11.0746 0.0825508C10.7739 0.224301 10.5823 0.526739 10.5823 0.85927V9.17363L7.06391 5.32046C6.74426 4.97021 6.20042 4.94555 5.85017 5.26548C5.49992 5.5854 5.47526 6.12868 5.79519 6.47921L10.5823 11.7217V12.2784L5.79523 17.5212C5.47503 17.8712 5.49968 18.4148 5.85022 18.7349C6.20075 19.0551 6.74408 19.0305 7.06395 18.6797L10.5821 14.827V23.1408C10.5821 23.473 10.774 23.7758 11.0744 23.9178C11.1913 23.9728 11.3167 24.0001 11.4413 24.0001C11.6369 24.0001 11.8305 23.9336 11.9874 23.8047L18.1163 18.7641C18.2984 18.6144 18.4107 18.3964 18.4276 18.1615C18.4445 17.9267 18.3643 17.695 18.2054 17.5212ZM12.3007 2.6784L16.326 5.98857L12.3007 10.3968V2.6784ZM12.3007 21.3217V13.6036L16.326 18.0115L12.3007 21.3217Z"
      fill="black" />
  </symbol>

  <symbol id="certificate">
    <path
      d="M24 1.78125H0V19.2266H14.7643V22.2543L17.3884 20.9725L20.0125 22.2543V19.2266H24V1.78125ZM17.3884 16.413C16.0701 16.413 14.9978 15.3406 14.9978 14.0224C14.9978 12.7042 16.0701 11.6318 17.3884 11.6318C18.7066 11.6318 19.7791 12.7042 19.7791 14.0224C19.7791 15.3406 18.7066 16.413 17.3884 16.413ZM17.3884 19.4075L16.1706 20.0023V17.6177C16.5531 17.7477 16.9623 17.8193 17.3884 17.8193C17.8143 17.8193 18.2236 17.7477 18.6063 17.6177V20.0023L17.3884 19.4075ZM22.5938 17.8204H20.0125V16.7626C20.7343 16.071 21.1853 15.0987 21.1853 14.0224C21.1853 11.9288 19.4821 10.2255 17.3884 10.2255C15.2948 10.2255 13.5916 11.9288 13.5916 14.0224C13.5916 15.0987 14.0424 16.0712 14.7643 16.7626V17.8204H1.40625V3.1875H22.5938V17.8204Z"
      fill="black" />
      <path d="M2.81415 7.41064H21.1859V8.81689H2.81415V7.41064Z" fill="black" />
      <path d="M4.92517 4.59595H19.0748V6.0022H4.92517V4.59595Z" fill="black" />
      <path d="M2.81415 15.0057H9.65442V16.4119H2.81415V15.0057Z" fill="black" />
      <path d="M2.81415 12.1908H9.65442V13.597H2.81415V12.1908Z" fill="black" />
  </symbol>
</svg>
